<mxfile host="Electron" agent="Mozilla/5.0 (Windows NT 10.0; Win64; x64) AppleWebKit/537.36 (KHTML, like Gecko) draw.io/28.0.6 Chrome/138.0.7204.100 Electron/37.2.3 Safari/537.36" version="28.0.6">
  <diagram name="第 1 页" id="2z7zhLPFA4XceZyqik1a">
    <mxGraphModel dx="552" dy="474" grid="1" gridSize="10" guides="1" tooltips="1" connect="1" arrows="1" fold="1" page="1" pageScale="1" pageWidth="827" pageHeight="1169" math="0" shadow="0" adaptiveColors="auto">
      <root>
        <mxCell id="0" />
        <mxCell id="1" parent="0" />
        <mxCell id="WyvEjCY_ZaOwd_vRLN9j-3" value="" style="edgeStyle=orthogonalEdgeStyle;rounded=1;orthogonalLoop=1;jettySize=auto;html=1;strokeWidth=2;labelBackgroundColor=none;strokeColor=#0B4D6A;fontColor=default;" edge="1" parent="1" source="WyvEjCY_ZaOwd_vRLN9j-1" target="WyvEjCY_ZaOwd_vRLN9j-2">
          <mxGeometry relative="1" as="geometry">
            <Array as="points">
              <mxPoint x="300" y="140" />
            </Array>
          </mxGeometry>
        </mxCell>
        <mxCell id="WyvEjCY_ZaOwd_vRLN9j-7" value="" style="edgeStyle=none;rounded=1;orthogonalLoop=1;jettySize=auto;html=1;elbow=vertical;labelBackgroundColor=none;strokeColor=#0B4D6A;fontColor=default;" edge="1" parent="1" source="WyvEjCY_ZaOwd_vRLN9j-1">
          <mxGeometry relative="1" as="geometry">
            <mxPoint x="500" y="291.7391304347826" as="targetPoint" />
          </mxGeometry>
        </mxCell>
        <mxCell id="WyvEjCY_ZaOwd_vRLN9j-1" value="三季度弄" style="rounded=1;whiteSpace=wrap;html=1;fillColor=#09555B;fontColor=#EEEEEE;strokeColor=#BAC8D3;labelBackgroundColor=none;" vertex="1" parent="1">
          <mxGeometry x="240" y="140" width="120" height="60" as="geometry" />
        </mxCell>
        <mxCell id="WyvEjCY_ZaOwd_vRLN9j-2" value="" style="whiteSpace=wrap;html=1;fillColor=#09555B;strokeColor=#BAC8D3;fontColor=#EEEEEE;rounded=1;labelBackgroundColor=none;" vertex="1" parent="1">
          <mxGeometry x="240" y="290" width="120" height="60" as="geometry" />
        </mxCell>
      </root>
    </mxGraphModel>
  </diagram>
</mxfile>
